<svg xmlns="http://www.w3.org/2000/svg" xmlns:xlink="http://www.w3.org/1999/xlink" viewBox="0 0 154.5 154.5" height="154.5" width="154.5" data-background-color="#ffffff" preserveAspectRatio="xMidYMid meet" id="tight-bounds"><g><svg/></g><g><svg viewBox="0 0 154.5 154.5" height="154.5" width="154.5"><mask id="dafe96da-8d38-4a7d-bc1e-ce7c3adeeae7"><rect width="250" height="250" fill="white"/><g transform="matrix(1,0,0,1,51.99607238239757,43.83165)"><svg viewBox="0 0 50.50785523520485 66.8367" height="66.8367" width="50.50785523520485"><g><svg viewBox="0 0 50.50785523520485 66.8367" height="66.8367" width="50.50785523520485"><g><svg viewBox="0 0 50.50785523520485 66.8367" height="66.8367" width="50.50785523520485"><g id="SvgjsG1010"><svg viewBox="0 0 50.50785523520485 66.8367" height="66.8367" width="50.50785523520485" id="SvgjsSvg1009"><g><svg viewBox="0 0 50.50785523520485 66.8367" height="66.8367" width="50.50785523520485"><g transform="matrix(1,0,0,1,0,0)"><svg width="50.50785523520485" viewBox="-3.75 -29.299999237060547 25.899999618530273 33.94999885559082" height="66.8367" data-palette-color="#8bc53f"><path d="M9.1 0.65L9.1 0.65Q4.1 0.65 2.18-1.38 0.25-3.4 0.25-7.8L0.25-7.8 0.25-10.65 3.75-10.65Q2.55-11.45 1.68-12.75 0.8-14.05 0.8-16.35L0.8-16.35 0.8-17.6Q0.8-21.7 2.8-23.5 4.8-25.3 9.65-25.3L9.65-25.3Q14.55-25.3 16.35-23.38 18.15-21.45 18.15-17.15L18.15-17.15 18.15-14.4 15.15-14.4Q16.45-13.65 17.3-12.4 18.15-11.15 18.15-8.95L18.15-8.95 18.15-7.35Q18.15-3.1 16.13-1.23 14.1 0.65 9.1 0.65ZM9.1-0.25L9.1-0.25Q13.55-0.25 15.43-1.93 17.3-3.6 17.3-7.35L17.3-7.35 17.3-8.95Q17.3-11.3 16.05-12.63 14.8-13.95 12.9-14.5L12.9-14.5 12.05-14.75Q11.65-14.85 11.28-14.98 10.9-15.1 10.6-15.3L10.6-15.3 17.3-15.3 17.3-17.15Q17.3-21 15.65-22.73 14-24.45 9.65-24.45L9.65-24.45Q5.25-24.45 3.45-22.85 1.65-21.25 1.65-17.6L1.65-17.6 1.65-16.35Q1.65-13.85 3.08-12.48 4.5-11.1 6.35-10.45L6.35-10.45Q6.6-10.35 7.15-10.1 7.7-9.85 7.9-9.75L7.9-9.75 1.1-9.75 1.1-7.8Q1.1-3.85 2.83-2.05 4.55-0.25 9.1-0.25ZM9.1-0.7L9.1-0.7Q4.8-0.7 3.18-2.43 1.55-4.15 1.55-7.8L1.55-7.8 1.55-9.3 8.25-9.3 8.25-5.9Q8.25-5.05 8.45-4.73 8.65-4.4 9-4.4L9-4.4Q9.4-4.4 9.55-4.75 9.7-5.1 9.7-5.6L9.7-5.6 9.7-7.65Q9.7-9.25 8.68-9.83 7.65-10.4 6.15-11L6.15-11Q4.55-11.7 3.33-12.85 2.1-14 2.1-16.35L2.1-16.35 2.1-17.6Q2.1-21 3.83-22.5 5.55-24 9.65-24L9.65-24Q13.75-24 15.3-22.38 16.85-20.75 16.85-17.15L16.85-17.15 16.85-15.75 10.4-15.75 10.4-19.1Q10.4-20.3 9.7-20.3L9.7-20.3Q9.35-20.3 9.15-20.08 8.95-19.85 8.95-19.15L8.95-19.15 8.95-17.05Q8.95-15.95 9.75-15.33 10.55-14.7 12.75-14L12.75-14Q14.5-13.45 15.68-12.33 16.85-11.2 16.85-8.95L16.85-8.95 16.85-7.35Q16.85-3.85 15.1-2.27 13.35-0.7 9.1-0.7ZM10-19.15L10-15.7Q9.4-16.15 9.4-17.05L9.4-17.05 9.4-19.15Q9.4-19.85 9.7-19.85L9.7-19.85Q10-19.85 10-19.15L10-19.15ZM9-4.85L9-4.85Q8.85-4.85 8.78-5.03 8.7-5.2 8.7-5.7L8.7-5.7 8.7-9.3Q9.3-8.7 9.3-7.65L9.3-7.65 9.3-5.6Q9.3-4.85 9-4.85Z" opacity="1" transform="matrix(1,0,0,1,0,0)" fill="black" class="wordmark-text-0" id="SvgjsPath1008" stroke-width="7" stroke="black" stroke-linejoin="round"/></svg></g></svg></g></svg></g></svg></g><g/></svg></g></svg></g></mask><g transform="matrix(1,0,0,1,51.99607238239757,43.83165)"><svg viewBox="0 0 50.50785523520485 66.8367" height="66.8367" width="50.50785523520485"><g><svg viewBox="0 0 50.50785523520485 66.8367" height="66.8367" width="50.50785523520485"><g><svg viewBox="0 0 50.50785523520485 66.8367" height="66.8367" width="50.50785523520485"><g id="textblocktransform"><svg viewBox="0 0 50.50785523520485 66.8367" height="66.8367" width="50.50785523520485" id="textblock"><g><svg viewBox="0 0 50.50785523520485 66.8367" height="66.8367" width="50.50785523520485"><g transform="matrix(1,0,0,1,0,0)"><svg width="50.50785523520485" viewBox="-3.75 -29.299999237060547 25.899999618530273 33.94999885559082" height="66.8367" data-palette-color="#8bc53f"><path d="M9.1 0.65L9.1 0.65Q4.1 0.65 2.18-1.38 0.25-3.4 0.25-7.8L0.25-7.8 0.25-10.65 3.75-10.65Q2.55-11.45 1.68-12.75 0.8-14.05 0.8-16.35L0.8-16.35 0.8-17.6Q0.8-21.7 2.8-23.5 4.8-25.3 9.65-25.3L9.65-25.3Q14.55-25.3 16.35-23.38 18.15-21.45 18.15-17.15L18.15-17.15 18.15-14.4 15.15-14.4Q16.45-13.65 17.3-12.4 18.15-11.15 18.15-8.95L18.15-8.95 18.15-7.35Q18.15-3.1 16.13-1.23 14.1 0.65 9.1 0.65ZM9.1-0.25L9.1-0.25Q13.55-0.25 15.43-1.93 17.3-3.6 17.3-7.35L17.3-7.35 17.3-8.95Q17.3-11.3 16.05-12.63 14.8-13.95 12.9-14.5L12.9-14.5 12.05-14.75Q11.65-14.85 11.28-14.98 10.9-15.1 10.6-15.3L10.6-15.3 17.3-15.3 17.3-17.15Q17.3-21 15.65-22.73 14-24.45 9.65-24.45L9.65-24.45Q5.25-24.45 3.45-22.85 1.65-21.25 1.65-17.6L1.65-17.6 1.65-16.35Q1.65-13.85 3.08-12.48 4.5-11.1 6.35-10.45L6.35-10.45Q6.6-10.35 7.15-10.1 7.7-9.85 7.9-9.75L7.9-9.75 1.1-9.75 1.1-7.8Q1.1-3.85 2.83-2.05 4.55-0.25 9.1-0.25ZM9.1-0.7L9.1-0.7Q4.8-0.7 3.18-2.43 1.55-4.15 1.55-7.8L1.55-7.8 1.55-9.3 8.25-9.3 8.25-5.9Q8.25-5.05 8.45-4.73 8.65-4.4 9-4.4L9-4.4Q9.4-4.4 9.55-4.75 9.7-5.1 9.7-5.6L9.7-5.6 9.7-7.65Q9.7-9.25 8.68-9.83 7.65-10.4 6.15-11L6.15-11Q4.55-11.7 3.33-12.85 2.1-14 2.1-16.35L2.1-16.35 2.1-17.6Q2.1-21 3.83-22.5 5.55-24 9.65-24L9.65-24Q13.75-24 15.3-22.38 16.85-20.75 16.85-17.15L16.85-17.15 16.85-15.75 10.4-15.75 10.4-19.1Q10.4-20.3 9.7-20.3L9.7-20.3Q9.35-20.3 9.15-20.08 8.95-19.85 8.95-19.15L8.95-19.15 8.95-17.05Q8.95-15.95 9.75-15.33 10.55-14.7 12.75-14L12.75-14Q14.5-13.45 15.68-12.33 16.85-11.2 16.85-8.95L16.85-8.95 16.85-7.35Q16.85-3.85 15.1-2.27 13.35-0.7 9.1-0.7ZM10-19.15L10-15.7Q9.4-16.15 9.4-17.05L9.4-17.05 9.4-19.15Q9.4-19.85 9.7-19.85L9.7-19.85Q10-19.85 10-19.15L10-19.15ZM9-4.85L9-4.85Q8.85-4.85 8.78-5.03 8.7-5.2 8.7-5.7L8.7-5.7 8.7-9.3Q9.3-8.7 9.3-7.65L9.3-7.65 9.3-5.6Q9.3-4.85 9-4.85Z" opacity="1" transform="matrix(1,0,0,1,0,0)" fill="#8bc53f" class="wordmark-text-0" data-fill-palette-color="primary" id="text-0"/></svg></g></svg></g></svg></g></svg></g><g/></svg></g></svg></g><g mask="url(#dafe96da-8d38-4a7d-bc1e-ce7c3adeeae7)"><g transform="matrix(1.5371123590770657, 0, 0, 1.5371123590770657, 1, 1)"><svg xmlns="http://www.w3.org/2000/svg" xmlns:xlink="http://www.w3.org/1999/xlink" version="1.1" x="0" y="0" viewBox="0.39400002360343933 0.39400002360343933 99.21200561523438 99.21200561523438" enable-background="new 0 0 100 100" xml:space="preserve" height="99.21200561523438" width="99.21200561523438" class="icon-none" data-fill-palette-color="accent" id="none"><path d="M50 0.394C22.647 0.394 0.394 22.647 0.394 50S22.647 99.606 50 99.606 99.606 77.353 99.606 50 77.353 0.394 50 0.394M92.285 32.647C88.54 28.568 83.521 25.069 77.597 22.402 74.93 16.479 71.43 11.46 67.352 7.715A45.95 45.95 0 0 1 92.285 32.647M78.291 37.927C73.868 37.091 69.001 36.471 63.927 36.073 63.529 30.999 62.909 26.132 62.073 21.709 66.591 22.503 70.829 23.734 74.677 25.322 76.266 29.171 77.497 33.41 78.291 37.927M79.67 27.708C86.906 31.68 92.188 37.072 94.466 43.206 91.456 41.43 87.288 39.954 82.362 38.789A66.3 66.3 0 0 0 79.67 27.708M79.338 50C79.338 52.705 79.179 55.352 78.888 57.928 74.661 58.804 69.746 59.53 64.188 59.996 64.37 56.7 64.465 53.348 64.465 50 64.465 46.653 64.37 43.3 64.188 40.003 69.747 40.47 74.662 41.196 78.888 42.072 79.179 44.648 79.338 47.295 79.338 50M50 60.574C46.398 60.574 42.973 60.466 39.724 60.275 39.534 57.027 39.426 53.601 39.426 50S39.534 42.973 39.724 39.724C42.973 39.534 46.398 39.426 50 39.426S57.027 39.534 60.275 39.724C60.465 42.973 60.574 46.398 60.574 50S60.466 57.027 60.275 60.275C57.027 60.466 53.602 60.574 50 60.574M59.996 64.188C59.529 69.747 58.804 74.662 57.928 78.888 55.352 79.179 52.705 79.338 50 79.338S44.648 79.179 42.072 78.888C41.197 74.661 40.47 69.746 40.003 64.188 43.3 64.37 46.653 64.465 50 64.465 53.348 64.465 56.7 64.37 59.996 64.188M20.662 50C20.662 47.295 20.822 44.648 21.112 42.072 25.339 41.197 30.254 40.47 35.812 40.003 35.63 43.3 35.535 46.653 35.535 50 35.535 53.348 35.63 56.7 35.812 59.996 30.253 59.529 25.339 58.804 21.112 57.928A71 71 0 0 1 20.662 50M40.003 35.812C40.47 30.253 41.196 25.339 42.072 21.112 44.648 20.821 47.295 20.662 50 20.662S55.352 20.822 57.928 21.112C58.804 25.339 59.53 30.254 59.996 35.812A182 182 0 0 0 50 35.535C46.653 35.535 43.3 35.63 40.003 35.812M61.21 17.638C60.046 12.712 58.569 8.544 56.794 5.535 62.928 7.812 68.319 13.094 72.292 20.33A66.3 66.3 0 0 0 61.21 17.638M57.008 17.109A74 74 0 0 0 50 16.771C47.62 16.771 45.283 16.891 42.992 17.109 45.114 8.91 47.808 4.284 50 4.284S54.886 8.91 57.008 17.109M43.207 5.535C41.431 8.544 39.955 12.712 38.79 17.638A66.4 66.4 0 0 0 27.709 20.33C31.681 13.094 37.072 7.812 43.207 5.535M37.927 21.709C37.091 26.131 36.471 30.999 36.073 36.073 30.999 36.472 26.132 37.092 21.709 37.927 22.503 33.409 23.734 29.171 25.322 25.322 29.171 23.734 33.41 22.503 37.927 21.709M17.638 38.79C12.712 39.955 8.544 41.431 5.535 43.207 7.812 37.073 13.094 31.681 20.33 27.709A66.3 66.3 0 0 0 17.638 38.79M17.109 42.992A74 74 0 0 0 16.771 50C16.771 52.381 16.891 54.717 17.109 57.008 8.91 54.886 4.284 52.192 4.284 50S8.91 45.114 17.109 42.992M17.638 61.21A66.3 66.3 0 0 0 20.33 72.292C13.094 68.319 7.812 62.928 5.535 56.794 8.543 58.569 12.712 60.046 17.638 61.21M21.709 62.073C26.131 62.909 30.999 63.528 36.073 63.927 36.472 69.001 37.092 73.868 37.927 78.291 33.409 77.497 29.171 76.266 25.322 74.678 23.734 70.829 22.503 66.591 21.709 62.073M38.79 82.362C39.955 87.288 41.431 91.456 43.207 94.466 37.073 92.188 31.681 86.906 27.709 79.67A66 66 0 0 0 38.79 82.362M42.992 82.891C45.283 83.109 47.62 83.229 50 83.229S54.717 83.109 57.008 82.891C54.886 91.09 52.192 95.716 50 95.716S45.114 91.09 42.992 82.891M56.794 94.466C58.569 91.456 60.046 87.288 61.21 82.362A66.3 66.3 0 0 0 72.292 79.67C68.319 86.906 62.928 92.188 56.794 94.466M62.073 78.291C62.909 73.868 63.528 69.001 63.927 63.927 69.001 63.529 73.868 62.909 78.291 62.073 77.497 66.591 76.266 70.829 74.678 74.677 70.829 76.266 66.591 77.497 62.073 78.291M82.362 61.21C87.288 60.046 91.456 58.569 94.466 56.794 92.188 62.928 86.906 68.319 79.67 72.292A66 66 0 0 0 82.362 61.21M82.891 57.008C83.109 54.717 83.229 52.381 83.229 50 83.229 47.62 83.109 45.283 82.891 42.992 91.09 45.114 95.716 47.808 95.716 50S91.09 54.886 82.891 57.008M32.647 7.715C28.568 11.46 25.069 16.479 22.402 22.402 16.479 25.069 11.46 28.569 7.715 32.647A45.96 45.96 0 0 1 32.647 7.715M7.715 67.353C11.46 71.431 16.479 74.931 22.402 77.598 25.069 83.522 28.569 88.54 32.647 92.286A45.96 45.96 0 0 1 7.715 67.353M67.353 92.285C71.431 88.54 74.931 83.521 77.598 77.597 83.522 74.93 88.54 71.43 92.286 67.352A45.96 45.96 0 0 1 67.353 92.285" fill="#5d9943" data-fill-palette-color="accent"/></svg></g></g></svg></g><defs/></svg>